<svg width="512" height="512" viewBox="0 0 512 512" xmlns="http://www.w3.org/2000/svg">
  <circle cx="256" cy="256" r="256" fill="#0f9ed2"/>
  <g fill="#fff">
    <path d="m101.02 175.91c-56.676 0-85.017 24.57-85.017 79.968s28.338 80.199 85.017 80.199c56.502 0 85.017-24.801 85.017-80.199s-28.511-79.968-85.017-79.968zm0 119.84c-36.16 0-49.2-6.49-49.2-39.868s13.039-39.636 49.2-39.636c36.161 0 49.2 6.258 49.2 39.636s-13.038 39.868-49.2 39.868z"/>
    <path d="m216.62 178.45-23.296 40.331h54.589v114.74h35.988v-114.74h41.55l23.296-40.331z"/>
    <path d="m496 254.48c0-44.735-29.381-76.027-70.061-76.027h-54.938l-22.948 40.331h77.886c19.471 0 34.422 15.994 34.422 37.782 0 22.253-14.429 37.087-34.422 37.087h-41.725v-56.789h-36.161v96.657h77.886c40.333 0 70.061-34.074 70.061-79.041z"/>
  </g>
</svg>
