<svg xmlns="http://www.w3.org/2000/svg" viewBox="0 0 320 320"><defs><linearGradient id="a" x1="-6" x2="-6" y1="320" y2="0" gradientUnits="userSpaceOnUse"><stop offset="0" stop-color="#2a0000"/><stop offset=".1" stop-color="#360000"/><stop offset=".3" stop-color="#3b0000"/><stop offset=".4" stop-color="#3b0000"/><stop offset=".6" stop-color="#350000"/><stop offset=".7" stop-color="#310000"/><stop offset=".8" stop-color="#3b0000"/><stop offset="1" stop-color="#2a0000"/></linearGradient><linearGradient id="b" x1="-6" x2="160" y1="320" y2="32" gradientUnits="userSpaceOnUse"><stop offset=".3" stop-color="#5c0000"/><stop offset=".4" stop-color="#ae0606"/><stop offset=".5" stop-color="#ff0d0d"/><stop offset=".8" stop-color="#ff0d0d"/><stop offset=".9" stop-color="#ff2525"/><stop offset="1" stop-color="#ff7b7b"/></linearGradient></defs><path fill="url(#a)" stroke="url(#a)" d="m267 34-79 45v1l27-16v128l-110 64v-1l-1 1v44c0 14 6 15 13 12l2-1a164 164 0 0 0 8-4l5-3 111-64c28-16 28-16 28-48V65c0-17 0-25-4-31z"/><path fill-opacity=".1" d="m263 39-6 1-1 1a164 164 0 0 0-8 4l-5 3-28 16v128l-110 64v44c0 14 6 15 13 12l14-8 111-64c14-8 21-12 24-18 4-6 4-14 4-30V52c0-10-3-14-8-13z"/><path fill="url(#b)" stroke="url(#b)" d="M53 34c-4 6-4 14-4 31v127c0 32 0 32 28 48l111 64 5 3a376 376 0 0 0 8 4l2 1c7 3 13 2 13-12v-44l-1-1v1l-110-64V64l27 16v-1z"/><path fill-opacity=".2" d="M57 39c-5-1-8 3-8 13v140c0 16 0 24 4 30 3 6 10 10 24 18l111 64 5 3a376 376 0 0 0 8 4l1 1c7 3 13 2 13-12v-44l-110-64V64L77 48l-5-3a376 376 0 0 0-8-4l-1-1-6-1z"/><path fill="url(#a)" stroke="url(#a)" d="M215 4c-7 0-13 4-27 12L77 80c-28 16-28 16-28 48v129c0 31 0 31 29 47 21 13 25 15 40 8-7 3-13 2-13-12V160c0-32 0-32 27-48l56-32 79-46c-3-6-10-10-25-18-13-8-20-12-27-12z"/><path fill="url(#b)" stroke="url(#b)" d="M105 4c-7 0-14 4-27 12-15 8-22 12-25 18l135 78c27 16 27 16 27 48v140a40 40 0 0 1 0 7 15 15 0 0 1-2 3 8 8 0 0 1-1 2 6 6 0 0 1-2 1 7 7 0 0 1-3 0 12 12 0 0 1-2 0 21 21 0 0 1-3-1c15 7 19 5 40-8 29-16 29-16 29-47V128c0-32 0-32-28-48L132 16c-14-8-20-12-27-12z"/></svg>