<svg xmlns="http://www.w3.org/2000/svg" width="256" height="256"><path fill="#fff" d="M96 246c-4-1-7-3-8-6l-1-7-2-8c0-2-3-5-9-9-5-4-10-9-12-13l-7-14c-2-5-3-6-6-8l-4-2c-3-2-4-6-3-11 1-4 0-6-2-8-4-2-5-7-4-13l4-9 2-6-5-5a150 150 0 0 1-26-24c-2-4-3-11-2-15 2-6 4-7 15-8l22-5a161 161 0 0 1 20-4l6-5c10-8 20-14 33-17l5-2 1-6c2-14 6-26 10-29s11-3 17-2l8 5c4 3 7 7 14 17s9 12 11 13l7 3c16 5 27 14 37 27 7 8 15 27 18 42l5 32 3 25a152 152 0 0 1-3 61c-2 5-3 6-8 8l-4 3h-5l-7-1-7 1c-6 1-10 1-15-1-2 0-3-1-6-4l-4-2-3 2c-4 4-8 5-13 3-5-1-7-4-9-10l-3-8c-3-8-5-17-6-30-1-9-1-11-3-13-3-3-3-5-4-13l-1-8-1 6c0 6-2 9-6 10l-5 1c-4 0-9-1-12-4l-5-2-3 1c-3 3-2 5 1 12 4 8 5 17 4 32-1 9-1 14-3 19-1 5-3 7-7 8-4 2-6 2-9 1z"/><path d="M98 234c0-8-1-14-3-17-1-3-4-5-11-11-9-7-12-11-16-22l-5-19c0-8 0-8-4-1-2 6-6 11-6 9l1-2c4-6 6-15 6-28v-5l-2 3c-3 5-10 12-11 12l1-3c4-3 5-7 9-15 3-9 3-9 1-9l-2-1-7-1c-9-1-10-2-10-6l-1-3-2-6-8-8-8-9h6c10-1 17-2 29-6l11-3c8 0 10-1 15-6s10-9 17-12c8-4 13-5 24-7h2v-3l2-20c2-7 5-16 7-16a45 45 0 0 1 16 15 12773 12773 0 0 1 19 23l16 6c12 6 24 18 28 28l9 21c4 10 5 16 8 40l3 27c2 12 2 18 1 32 0 8-1 11-4 17l-2 7-1 1a41 41 0 0 0-4-20l-5 5c-2 3-1 8 2 13l1 3-7-8-5-10c0-1-1-1-3 1s-3 3-3 8l1 6 1 3c-1 1-5-2-8-5l-15-27-7-12a202 202 0 0 0-1 26l-1 17c0 3-1 2-1-3 0-4 0-4-4-13s-5-18-7-44a438 438 0 0 1 0-12l-1-2v2l-1 5-3 8v-13l-1-10-9-15c-4-5-5-6-3-2l2 5 2 10-2-5c-2-5-4-9-7-12l-17-18c-1 1 3 16 5 24l4 13c1 5 2 16 1 17l-1-2-3-4-3-3-4-1c-5-1-9-3-13-6l-3-3 6 11 1 2c-1-1-14-14-16-18-5-6-6-9-8-14l-2-4 1 6 1 10c1 9 5 18 10 27l3 5-10-12-4-4 3 8c3 10 5 13 10 20 6 8 6 11 5 33l-1 9-3 7-1-4zm129-17v-15l-2-10v-3l-1 4-1 19 3 7 1-2zM85 198l-7-18c-2-5-6-10-6-9a86 86 0 0 0 8 17c-1 1-3-2-5-6l-3-3 1 6c2 6 5 10 9 12l3 1zm-24-78c3-1 4-3 5-8l1-4 2-9v-1h-4l-7 1h-3l-3 3c-3 3-9 6-11 6v1l6 1h3l-2 3-3 3c-3 1-2 1 3 2h11v1c-2 1 0 2 2 1zm90-46h10c1-1-2-9-4-13l-7-11-4-3-3-2c-1 1 0 4 1 6 1 0 1 1 0 0l-5-6c-1-3-6-7-7-7v1a142 142 0 0 1 1 18l-6 8-2 3a532 532 0 0 1 26 6z"/></svg>