<svg xmlns="http://www.w3.org/2000/svg" width="256" height="256"><path fill="#fff" d="M96.4 246c-4.7-1.1-7.5-3.2-8.5-6.3l-1.3-7c-.5-3-1.1-6.3-1.4-7.2-.7-2.3-3.4-5.2-8.9-9.5-5.2-4-10.2-9.2-12.6-12.8a75 75 0 0 1-6.8-14.4c-1.7-5.1-2.6-6.2-6.2-7.4-1.5-.5-3.3-1.4-4-2-2.4-2-3.5-6.6-2.6-11.6.7-4 .2-5.5-2.4-7.4-3.6-2.5-4.8-7.4-3.4-13.4a49 49 0 0 1 3.2-8.5 40 40 0 0 0 2.6-6c0-1.7-1-2.9-4.8-5.5a149.6 149.6 0 0 1-26.6-24.2c-2-4-2.6-10.5-1.4-15.1 1.4-5.7 4-7 15.2-8 7.2-.6 12.1-1.6 21-4.2 4.2-1.3 10.2-2.7 13.5-3.3a60 60 0 0 0 7.3-1.7c.7-.3 3.4-2.3 5.8-4.5a75 75 0 0 1 32.7-17 29 29 0 0 0 5.4-1.7c.4-.3.8-2.8 1.2-6.3 1.5-14 5.6-26.2 10-29.2 3.3-2.4 11-3 17-1.5 3 .8 4.3 1.6 7.7 4.5 3.6 3 7.1 7.3 14.1 17 7 9.9 9.2 12.5 10.8 13.5.7.5 4 1.7 7.2 2.8a73.7 73.7 0 0 1 37.2 27c6.1 8.2 14.2 27.3 17.7 41.7 1.8 7.5 2.7 13 5.1 32.5a1904 1904 0 0 0 3.2 24.4c1.8 12 2.1 17.7 1.9 30.5-.4 16.1-1.3 21.6-5.3 31-2.2 5-3 6-7.6 8.3l-4 2-5 .2c-2.6.1-5.9 0-7.2-.2a18 18 0 0 0-7 .4c-5.7 1-10.7.8-15-.5-2.5-.8-3.4-1.4-6-4a19 19 0 0 0-3.7-2.9c-.3 0-1.6 1-3 2.3-4.2 4-9 5.1-13.6 3.5-4.9-1.7-6.8-4-8.5-10.1-.6-2-2-5.8-3-8.4-3.3-8-5.2-16.7-6.5-30.2-1-9-1.3-10.5-3.3-12.7-2.5-2.7-3-4.5-3.3-12.8-.2-4-.6-7.4-.8-7.6-.6-.6-.9.9-1.1 5.8-.4 6-2.1 8.7-6.7 10.2a21 21 0 0 1-5.2.9 23 23 0 0 1-11.6-4c-2-1.6-2.7-1.9-4.8-2-2.2-.2-2.5-.1-3.5 1-2.2 2.3-2 4.2 1.6 12 3.6 7.9 4.7 16.8 3.7 31.5-.6 9-1.3 14.6-2.6 19.5-1.2 4.5-3.2 6.6-7.3 7.9-4 1.2-5.9 1.4-8.7.7z"/><path d="M98.5 234.1c-.4-8-1.6-14-3.2-17.2a37.1 37.1 0 0 0-11-10.7 40.1 40.1 0 0 1-16.1-22.1 93.1 93.1 0 0 1-4.8-19.5c-.8-7.2-.7-7.2-4-.4-2.8 5.8-6.2 10.7-6.3 9 0-.5.4-1.4.8-2a47 47 0 0 0 6-27.7l-.1-5.6-1.7 2.7c-3.4 5.6-10.2 12.9-11.5 12.4-.2 0 .5-1.3 1.7-2.7 3.3-3.8 4.9-6.8 8.5-15.8 3.4-8.5 3.4-8.8 1.2-8.9a83 83 0 0 0-9.4-1.5c-8.5-1-9.7-1.7-9.7-5.7a6 6 0 0 0-1-3.1c-1-1.5-2-4.4-2-5.8 0-.6-3-3.9-8.1-9-4.5-4.4-8.2-8.2-8.2-8.4 0-.1 2.9-.4 6.4-.5 10-.5 16.9-1.9 28.6-5.7 4.7-1.5 7.2-2 11.6-2.5 7.9-.8 9.7-1.6 14.5-6.2a66.8 66.8 0 0 1 40.8-18.8l2.6-.4.1-3.4c.2-6.3 1-15.4 1.9-19.3 1.4-7 5.4-16.4 6.7-16a45.1 45.1 0 0 1 15.7 15.2l7.5 10.3c2 2.9 5 6.7 6.4 8.4 2.6 3.1 2.8 3.3 5.2 3.8 4.6 1 12.7 3.8 16.5 5.9a72.6 72.6 0 0 1 28.3 27.8c5 11 6.4 14.4 8.8 21.4 3.3 9.8 4.4 15.6 7.5 40 1.1 9.4 2.8 21.7 3.6 27.4a134 134 0 0 1 1 31.8c-.3 8-1 10.7-3.8 17a55.4 55.4 0 0 0-2.6 6.5c-.6 2.6-1.5 3.2-1.1.9a41.3 41.3 0 0 0-3.6-19.3c-.5-.4-4.5 3.3-5.4 5-1.3 2.5-.3 7.7 2.4 12.8a7.6 7.6 0 0 1 1 2.5c-.2.3-4.2-4.2-7-7.8a35.2 35.2 0 0 1-5.2-9.5c0-1.2-.9-1-2.7.3-2.8 2-3.5 3.6-3.5 8.3 0 3.3.2 4.2 1.2 6.4a9 9 0 0 1 1 2.7c-.5.5-5-2.5-7.5-5-3.7-3.8-8-10.9-15.8-26.7-3.5-7-6.3-12.4-6.4-12.1l-1 7c-1 7.1-1 12-.5 18.7.4 3.9 0 13.4-.6 17.3-.5 2.6-.9 1.3-.9-2.8 0-4.5.1-4-4-13.4-4-9-5.5-18.5-7.1-44a438 438 0 0 1-.6-12.5l-.1-1.3-.6 1.4c-.3.7-.9 3-1.3 5.2-.6 3.8-2.2 8.2-2.9 8.2-.2 0-.2-1.7 0-4 .2-2.1.3-6.4.3-9.5 0-5-.2-5.9-1.4-9.3a53 53 0 0 0-8.6-14.9c-4.4-5.9-5.1-6.5-3.3-2.7a88 88 0 0 1 2.4 5.2c1.3 3.3 2.7 11 1.9 10.2-.2-.1-1-2.2-2-4.6-2-5.2-4-9-6.7-12.3a233.6 233.6 0 0 0-17.6-18.2c-.3 1 3.1 16 5.5 23.9a177 177 0 0 1 3.4 12.9 75 75 0 0 1 1.5 17c-.3.2-.6-.2-1-1.4a14 14 0 0 0-3.4-4.8l-2.8-3-4.1-.8c-5-1-9.2-3-12.8-6.2a35.5 35.5 0 0 0-2.9-2.3 53 53 0 0 0 5.8 10.3c1.7 2 2 3 .9 2.3-1.3-.8-13.4-14.3-16.2-18-4.1-5.5-6-8.9-7.8-14l-1.4-4 .2 6.4c.1 3.5.5 8 .9 10a82.6 82.6 0 0 0 10.7 26.4 23 23 0 0 1 2.6 5c-.5.4-5.6-5.5-9.7-11.2-3.7-5.2-4.8-6.6-3.9-4.8.3.4 1.6 4.3 3 8.6a55.2 55.2 0 0 0 9.5 19.2c6.3 8.5 6.7 11 5.2 33.5-.2 3.3-.7 7.2-1 8.6-1 3.5-2.5 7.5-2.9 7.5-.2 0-.4-1.8-.5-4zm128.4-16.7c1.2-2 1.1-6.2-.4-15.3L225 192l-.3-2.6-.5 3.4a87.5 87.5 0 0 0-.7 19c.5 2 2.3 7 2.6 7l1-1.4zM85 198c0-.8-5.4-15.3-6.6-17.8-2.4-5-5.9-10.7-5.9-9.7 0 1.3 4 11.5 5.9 14.7.8 1.5 1.4 2.9 1.2 3-.5.5-2.9-2.3-5-5.8-1.2-2-2.3-3.6-2.5-3.7-.4-.3.2 3.2 1.1 6 2 6 5.3 10.8 8.4 12.4 2 1 3.4 1.3 3.4.9zm-23.7-78c3-.8 4-2.7 4.5-8.1.1-1.1.6-2.8 1-3.7 1.4-2.7 2.4-7.2 2-9l-.2-1.5-3.3.2-7 .8-3.6.4L52 102a25.7 25.7 0 0 1-10.4 6.1c-.5 0-.8.3-.8.6 0 1 3.9 1.8 6.7 1.5 1.2-.2 2.3-.1 2.3 0 0 .2-.9 1.5-1.9 2.9-1.3 1.8-2.2 2.7-3.2 3-2.4.7-1.5 1.3 3 2 4.7.9 9.6 1 11.3.4 1.3-.5 1.5.1.2.8-2 1-.6 1.7 2.1.9zm89.3-46c4.3-.8 7-.9 9-.3.8.2 1.7.3 1.8.1.6-.5-2-8.4-4-12.3a35 35 0 0 0-7.6-11.2 16 16 0 0 1-3.8-3.1c-2.3-2.4-2.8-2.8-3.1-2.2-.5.9.5 4.4 1.6 5.6.7.9.7 1 0 .5-1.7-1-3.3-2.7-5-5.7-1.9-3-6-7.3-7.2-7.3-.4 0-.5.3-.3 1.4l.6 9.1.5 8.2c.2.5-3.1 5-6 7.8-1.9 2-2.6 3.1-2.1 3.1l6.3 1.3c3.8.8 8.3 1.4 11.5 1.6 4.8.2 5.2.3 4.7 1-.7.7-1.3 3-.8 3l4-.7z"/></svg>